# xmcd
#
# Track frame offsets: 
#        150
#        16540
#        31223
#        47185
#        63963
#        80862
#        98608
#        112791
#        128927
#        145646
#        165806
#        181942
#
# Disc length: 2641 seconds
#
# Revision: 0
# Processed by: cddbd v1.5.2PL0 Copyright (c) Steve Scherf et al.
# Submitted via: ExactAudioCopy v1.0b3
#
DISCID=860a4f0c
DTITLE=Carly Ritter - Carly Ritter
DYEAR=2013
DGENRE=Country
TTITLE0=It Don't Come Easy
TTITLE1=Storms On The Ocean
TTITLE2=Oh, Farmer
TTITLE3=It Is Love
TTITLE4=Mama
TTITLE5=Princess Of The Prairie
TTITLE6=Save Your Love
TTITLE7=Silver Dagger
TTITLE8=The Ever-Loving Kind
TTITLE9=This Place Ain't Our Home
TTITLE10=I Am Here
TTITLE11=Little Bird
EXTD=
EXTT0=
EXTT1=
EXTT2=
EXTT3=
EXTT4=
EXTT5=
EXTT6=
EXTT7=
EXTT8=
EXTT9=
EXTT10=
EXTT11=
PLAYORDER=
